<svg xmlns="http://www.w3.org/2000/svg" xmlns:xlink="http://www.w3.org/1999/xlink" width="1080" zoomAndPan="magnify" viewBox="0 0 810 809.999993" height="1080" preserveAspectRatio="xMidYMid meet" version="1.0"><defs><g/><clipPath id="cb77bca476"><path d="M 412.894531 249.308594 L 632.058594 249.308594 L 632.058594 385.308594 L 412.894531 385.308594 Z M 412.894531 249.308594 " clip-rule="nonzero"/></clipPath><clipPath id="0e7f1dd7bb"><path d="M 644.113281 249.308594 L 742.203125 249.308594 L 742.203125 385.308594 L 644.113281 385.308594 Z M 644.113281 249.308594 " clip-rule="nonzero"/></clipPath></defs><rect x="-81" width="972" fill="#ffffff" y="-80.999999" height="971.999992" fill-opacity="1"/><rect x="-81" width="972" fill="#ffffff" y="-80.999999" height="971.999992" fill-opacity="1"/><g fill="#00227e" fill-opacity="1"><g transform="translate(0.0000035, 369.070943)"><g><path d="M 43.078125 -87.953125 C 57.347656 -87.953125 68.242188 -84.257812 75.765625 -76.875 C 83.285156 -69.5 87.046875 -58.53125 87.046875 -43.96875 C 87.046875 -29.457031 83.285156 -18.5 75.765625 -11.09375 C 68.242188 -3.695312 57.347656 0 43.078125 0 L 11.4375 0 L 11.4375 -87.953125 Z M 42.046875 -14.625 C 51.109375 -14.625 57.882812 -16.9375 62.375 -21.5625 C 66.875 -26.195312 69.125 -33.664062 69.125 -43.96875 C 69.125 -54.28125 66.875 -61.75 62.375 -66.375 C 57.882812 -71.007812 51.109375 -73.328125 42.046875 -73.328125 L 28.8125 -73.328125 L 28.8125 -14.625 Z M 42.046875 -14.625 "/></g></g></g><g fill="#00227e" fill-opacity="1"><g transform="translate(94.021431, 369.070943)"><g><path d="M 46.625 1.265625 C 34.507812 1.265625 25.523438 -1.609375 19.671875 -7.359375 C 13.816406 -13.117188 10.890625 -21.65625 10.890625 -32.96875 L 10.890625 -87.953125 L 27.90625 -87.953125 L 27.90625 -33.09375 C 27.90625 -26.675781 29.445312 -21.863281 32.53125 -18.65625 C 35.625 -15.445312 40.320312 -13.84375 46.625 -13.84375 C 59.09375 -13.84375 65.328125 -20.257812 65.328125 -33.09375 L 65.328125 -87.953125 L 82.359375 -87.953125 L 82.359375 -32.96875 C 82.359375 -21.65625 79.429688 -13.117188 73.578125 -7.359375 C 67.722656 -1.609375 58.738281 1.265625 46.625 1.265625 Z M 46.625 1.265625 "/></g></g></g><g fill="#00227e" fill-opacity="1"><g transform="translate(187.260834, 369.070943)"><g><path d="M 47.953125 1.265625 C 39.890625 1.265625 32.78125 -0.378906 26.625 -3.671875 C 20.46875 -6.960938 15.644531 -11.984375 12.15625 -18.734375 C 8.664062 -25.492188 6.921875 -33.90625 6.921875 -43.96875 C 6.921875 -54.039062 8.664062 -62.453125 12.15625 -69.203125 C 15.644531 -75.960938 20.46875 -80.988281 26.625 -84.28125 C 32.78125 -87.570312 39.890625 -89.21875 47.953125 -89.21875 C 56.003906 -89.21875 63.097656 -87.582031 69.234375 -84.3125 C 75.378906 -81.039062 80.1875 -76.015625 83.65625 -69.234375 C 87.125 -62.460938 88.859375 -54.039062 88.859375 -43.96875 C 88.859375 -33.90625 87.125 -25.484375 83.65625 -18.703125 C 80.1875 -11.929688 75.378906 -6.910156 69.234375 -3.640625 C 63.097656 -0.367188 56.003906 1.265625 47.953125 1.265625 Z M 47.953125 -13.84375 C 55.410156 -13.84375 61.101562 -16.238281 65.03125 -21.03125 C 68.957031 -25.820312 70.921875 -33.46875 70.921875 -43.96875 C 70.921875 -54.476562 68.957031 -62.140625 65.03125 -66.953125 C 61.101562 -71.765625 55.410156 -74.171875 47.953125 -74.171875 C 40.453125 -74.171875 34.722656 -71.765625 30.765625 -66.953125 C 26.816406 -62.140625 24.84375 -54.476562 24.84375 -43.96875 C 24.84375 -33.46875 26.816406 -25.820312 30.765625 -21.03125 C 34.722656 -16.238281 40.453125 -13.84375 47.953125 -13.84375 Z M 47.953125 -13.84375 "/></g></g></g><g fill="#00227e" fill-opacity="1"><g transform="translate(283.086896, 369.070943)"><g><path d="M 48.0625 1.265625 C 39.96875 1.265625 32.832031 -0.414062 26.65625 -3.78125 C 20.476562 -7.15625 15.644531 -12.21875 12.15625 -18.96875 C 8.664062 -25.726562 6.921875 -34.0625 6.921875 -43.96875 C 6.921875 -53.875 8.664062 -62.207031 12.15625 -68.96875 C 15.644531 -75.726562 20.476562 -80.789062 26.65625 -84.15625 C 32.832031 -87.53125 39.96875 -89.21875 48.0625 -89.21875 C 56.53125 -89.21875 63.71875 -87.5625 69.625 -84.25 C 75.539062 -80.9375 79.765625 -75.894531 82.296875 -69.125 L 69.609375 -61.359375 L 68.09375 -61.421875 C 66.207031 -65.992188 63.648438 -69.269531 60.421875 -71.25 C 57.191406 -73.238281 53.070312 -74.234375 48.0625 -74.234375 C 40.769531 -74.234375 35.078125 -71.816406 30.984375 -66.984375 C 26.890625 -62.148438 24.84375 -54.476562 24.84375 -43.96875 C 24.84375 -33.507812 26.890625 -25.863281 30.984375 -21.03125 C 35.078125 -16.195312 40.769531 -13.78125 48.0625 -13.78125 C 59.5 -13.78125 66.5 -19.332031 69.0625 -30.4375 L 70.5625 -30.4375 L 83.375 -23.765625 C 80.96875 -15.421875 76.859375 -9.160156 71.046875 -4.984375 C 65.234375 -0.816406 57.570312 1.265625 48.0625 1.265625 Z M 48.0625 1.265625 "/></g></g></g><g fill="#ffd700" fill-opacity="1"><g transform="translate(0.0000035, 539.501952)"><g><path d="M 45.421875 -87.953125 C 51.710938 -87.953125 57.09375 -86.796875 61.5625 -84.484375 C 66.039062 -82.179688 69.421875 -78.953125 71.703125 -74.796875 C 73.992188 -70.648438 75.140625 -65.832031 75.140625 -60.34375 C 75.140625 -54.84375 73.992188 -50.023438 71.703125 -45.890625 C 69.421875 -41.765625 66.039062 -38.546875 61.5625 -36.234375 C 57.09375 -33.929688 51.710938 -32.78125 45.421875 -32.78125 L 28.8125 -32.78125 L 28.8125 0 L 11.4375 0 L 11.4375 -87.953125 Z M 43.140625 -46.5625 C 52.796875 -46.5625 57.625 -51.15625 57.625 -60.34375 C 57.625 -69.5625 52.796875 -74.171875 43.140625 -74.171875 L 28.8125 -74.171875 L 28.8125 -46.5625 Z M 43.140625 -46.5625 "/></g></g></g><g fill="#ffd700" fill-opacity="1"><g transform="translate(80.366354, 539.501952)"><g><path d="M 11.4375 0 L 11.4375 -87.953125 L 46.75 -87.953125 C 55.84375 -87.953125 62.707031 -85.851562 67.34375 -81.65625 C 71.976562 -77.46875 74.296875 -71.6875 74.296875 -64.3125 C 74.296875 -58.976562 72.941406 -54.601562 70.234375 -51.1875 C 67.523438 -47.78125 63.484375 -45.175781 58.109375 -43.375 L 58.109375 -42.109375 C 60.878906 -40.910156 63.113281 -39.125 64.8125 -36.75 C 66.519531 -34.382812 68.132812 -30.878906 69.65625 -26.234375 L 78.453125 0 L 60.578125 0 L 51.96875 -26.28125 C 51.09375 -28.9375 50.101562 -30.992188 49 -32.453125 C 47.894531 -33.921875 46.488281 -34.984375 44.78125 -35.640625 C 43.082031 -36.304688 40.867188 -36.640625 38.140625 -36.640625 L 28.8125 -36.640625 L 28.8125 0 Z M 44.640625 -50.40625 C 53.054688 -50.40625 57.265625 -54.335938 57.265625 -62.203125 C 57.265625 -70.179688 53.054688 -74.171875 44.640625 -74.171875 L 28.8125 -74.171875 L 28.8125 -50.40625 Z M 44.640625 -50.40625 "/></g></g></g><g fill="#ffd700" fill-opacity="1"><g transform="translate(162.597509, 539.501952)"><g><path d="M 47.953125 1.265625 C 39.890625 1.265625 32.78125 -0.378906 26.625 -3.671875 C 20.46875 -6.960938 15.644531 -11.984375 12.15625 -18.734375 C 8.664062 -25.492188 6.921875 -33.90625 6.921875 -43.96875 C 6.921875 -54.039062 8.664062 -62.453125 12.15625 -69.203125 C 15.644531 -75.960938 20.46875 -80.988281 26.625 -84.28125 C 32.78125 -87.570312 39.890625 -89.21875 47.953125 -89.21875 C 56.003906 -89.21875 63.097656 -87.582031 69.234375 -84.3125 C 75.378906 -81.039062 80.1875 -76.015625 83.65625 -69.234375 C 87.125 -62.460938 88.859375 -54.039062 88.859375 -43.96875 C 88.859375 -33.90625 87.125 -25.484375 83.65625 -18.703125 C 80.1875 -11.929688 75.378906 -6.910156 69.234375 -3.640625 C 63.097656 -0.367188 56.003906 1.265625 47.953125 1.265625 Z M 47.953125 -13.84375 C 55.410156 -13.84375 61.101562 -16.238281 65.03125 -21.03125 C 68.957031 -25.820312 70.921875 -33.46875 70.921875 -43.96875 C 70.921875 -54.476562 68.957031 -62.140625 65.03125 -66.953125 C 61.101562 -71.765625 55.410156 -74.171875 47.953125 -74.171875 C 40.453125 -74.171875 34.722656 -71.765625 30.765625 -66.953125 C 26.816406 -62.140625 24.84375 -54.476562 24.84375 -43.96875 C 24.84375 -33.46875 26.816406 -25.820312 30.765625 -21.03125 C 34.722656 -16.238281 40.453125 -13.84375 47.953125 -13.84375 Z M 47.953125 -13.84375 "/></g></g></g><g fill="#ffd700" fill-opacity="1"><g transform="translate(258.423571, 539.501952)"><g><path d="M 67.203125 -87.953125 L 67.203125 -73.390625 L 28.8125 -73.390625 L 28.8125 -50.109375 L 63.640625 -50.109375 L 63.640625 -35.734375 L 28.8125 -35.734375 L 28.8125 0 L 11.4375 0 L 11.4375 -87.953125 Z M 67.203125 -87.953125 "/></g></g></g><g fill="#ffd700" fill-opacity="1"><g transform="translate(329.526135, 539.501952)"><g><path d="M 28.8125 -38.625 L 28.8125 -14.5625 L 70.8125 -14.5625 L 70.8125 0 L 11.4375 0 L 11.4375 -87.953125 L 69.84375 -87.953125 L 69.84375 -73.390625 L 28.8125 -73.390625 L 28.8125 -52.8125 L 64.671875 -52.8125 L 64.671875 -38.625 Z M 28.8125 -38.625 "/></g></g></g><g fill="#ffd700" fill-opacity="1"><g transform="translate(405.1403, 539.501952)"><g><path d="M 38.984375 1.265625 C 32.890625 1.265625 27.460938 0.515625 22.703125 -0.984375 C 17.953125 -2.492188 13.992188 -4.472656 10.828125 -6.921875 C 7.660156 -9.367188 5.234375 -12.054688 3.546875 -14.984375 L 13.109375 -26.65625 L 14.625 -26.65625 C 17.269531 -22.71875 20.625 -19.585938 24.6875 -17.265625 C 28.757812 -14.941406 33.523438 -13.78125 38.984375 -13.78125 C 43.628906 -13.78125 47.132812 -14.757812 49.5 -16.71875 C 51.875 -18.6875 53.0625 -21.394531 53.0625 -24.84375 C 53.0625 -26.925781 52.675781 -28.671875 51.90625 -30.078125 C 51.144531 -31.484375 49.882812 -32.6875 48.125 -33.6875 C 46.363281 -34.6875 43.976562 -35.550781 40.96875 -36.28125 L 29.65625 -38.859375 C 21.757812 -40.660156 15.875 -43.65625 12 -47.84375 C 8.132812 -52.039062 6.203125 -57.488281 6.203125 -64.1875 C 6.203125 -69.15625 7.441406 -73.523438 9.921875 -77.296875 C 12.410156 -81.066406 16.03125 -83.992188 20.78125 -86.078125 C 25.53125 -88.171875 31.21875 -89.21875 37.84375 -89.21875 C 44.613281 -89.21875 50.414062 -88.320312 55.25 -86.53125 C 60.082031 -84.75 64.164062 -82.015625 67.5 -78.328125 L 58.890625 -66.53125 L 57.390625 -66.53125 C 54.898438 -69.132812 52.050781 -71.085938 48.84375 -72.390625 C 45.632812 -73.703125 41.96875 -74.359375 37.84375 -74.359375 C 33.070312 -74.359375 29.441406 -73.515625 26.953125 -71.828125 C 24.460938 -70.140625 23.21875 -67.8125 23.21875 -64.84375 C 23.21875 -62.082031 24.085938 -59.878906 25.828125 -58.234375 C 27.578125 -56.585938 30.597656 -55.300781 34.890625 -54.375 L 46.4375 -51.96875 C 54.976562 -50.164062 61.175781 -47.109375 65.03125 -42.796875 C 68.882812 -38.484375 70.8125 -32.859375 70.8125 -25.921875 C 70.8125 -20.429688 69.625 -15.648438 67.25 -11.578125 C 64.882812 -7.503906 61.316406 -4.34375 56.546875 -2.09375 C 51.773438 0.144531 45.921875 1.265625 38.984375 1.265625 Z M 38.984375 1.265625 "/></g></g></g><g fill="#ffd700" fill-opacity="1"><g transform="translate(480.694295, 539.501952)"><g><path d="M 47.953125 1.265625 C 39.890625 1.265625 32.78125 -0.378906 26.625 -3.671875 C 20.46875 -6.960938 15.644531 -11.984375 12.15625 -18.734375 C 8.664062 -25.492188 6.921875 -33.90625 6.921875 -43.96875 C 6.921875 -54.039062 8.664062 -62.453125 12.15625 -69.203125 C 15.644531 -75.960938 20.46875 -80.988281 26.625 -84.28125 C 32.78125 -87.570312 39.890625 -89.21875 47.953125 -89.21875 C 56.003906 -89.21875 63.097656 -87.582031 69.234375 -84.3125 C 75.378906 -81.039062 80.1875 -76.015625 83.65625 -69.234375 C 87.125 -62.460938 88.859375 -54.039062 88.859375 -43.96875 C 88.859375 -33.90625 87.125 -25.484375 83.65625 -18.703125 C 80.1875 -11.929688 75.378906 -6.910156 69.234375 -3.640625 C 63.097656 -0.367188 56.003906 1.265625 47.953125 1.265625 Z M 47.953125 -13.84375 C 55.410156 -13.84375 61.101562 -16.238281 65.03125 -21.03125 C 68.957031 -25.820312 70.921875 -33.46875 70.921875 -43.96875 C 70.921875 -54.476562 68.957031 -62.140625 65.03125 -66.953125 C 61.101562 -71.765625 55.410156 -74.171875 47.953125 -74.171875 C 40.453125 -74.171875 34.722656 -71.765625 30.765625 -66.953125 C 26.816406 -62.140625 24.84375 -54.476562 24.84375 -43.96875 C 24.84375 -33.46875 26.816406 -25.820312 30.765625 -21.03125 C 34.722656 -16.238281 40.453125 -13.84375 47.953125 -13.84375 Z M 47.953125 -13.84375 "/></g></g></g><g fill="#ffd700" fill-opacity="1"><g transform="translate(576.520357, 539.501952)"><g><path d="M 11.4375 0 L 11.4375 -87.953125 L 46.75 -87.953125 C 55.84375 -87.953125 62.707031 -85.851562 67.34375 -81.65625 C 71.976562 -77.46875 74.296875 -71.6875 74.296875 -64.3125 C 74.296875 -58.976562 72.941406 -54.601562 70.234375 -51.1875 C 67.523438 -47.78125 63.484375 -45.175781 58.109375 -43.375 L 58.109375 -42.109375 C 60.878906 -40.910156 63.113281 -39.125 64.8125 -36.75 C 66.519531 -34.382812 68.132812 -30.878906 69.65625 -26.234375 L 78.453125 0 L 60.578125 0 L 51.96875 -26.28125 C 51.09375 -28.9375 50.101562 -30.992188 49 -32.453125 C 47.894531 -33.921875 46.488281 -34.984375 44.78125 -35.640625 C 43.082031 -36.304688 40.867188 -36.640625 38.140625 -36.640625 L 28.8125 -36.640625 L 28.8125 0 Z M 44.640625 -50.40625 C 53.054688 -50.40625 57.265625 -54.335938 57.265625 -62.203125 C 57.265625 -70.179688 53.054688 -74.171875 44.640625 -74.171875 L 28.8125 -74.171875 L 28.8125 -50.40625 Z M 44.640625 -50.40625 "/></g></g></g><g fill="#ffd700" fill-opacity="1"><g transform="translate(658.751512, 539.501952)"><g><path d="M 28.8125 -38.625 L 28.8125 -14.5625 L 70.8125 -14.5625 L 70.8125 0 L 11.4375 0 L 11.4375 -87.953125 L 69.84375 -87.953125 L 69.84375 -73.390625 L 28.8125 -73.390625 L 28.8125 -52.8125 L 64.671875 -52.8125 L 64.671875 -38.625 Z M 28.8125 -38.625 "/></g></g></g><g fill="#ffd700" fill-opacity="1"><g transform="translate(734.365709, 539.501952)"><g><path d="M 38.984375 1.265625 C 32.890625 1.265625 27.460938 0.515625 22.703125 -0.984375 C 17.953125 -2.492188 13.992188 -4.472656 10.828125 -6.921875 C 7.660156 -9.367188 5.234375 -12.054688 3.546875 -14.984375 L 13.109375 -26.65625 L 14.625 -26.65625 C 17.269531 -22.71875 20.625 -19.585938 24.6875 -17.265625 C 28.757812 -14.941406 33.523438 -13.78125 38.984375 -13.78125 C 43.628906 -13.78125 47.132812 -14.757812 49.5 -16.71875 C 51.875 -18.6875 53.0625 -21.394531 53.0625 -24.84375 C 53.0625 -26.925781 52.675781 -28.671875 51.90625 -30.078125 C 51.144531 -31.484375 49.882812 -32.6875 48.125 -33.6875 C 46.363281 -34.6875 43.976562 -35.550781 40.96875 -36.28125 L 29.65625 -38.859375 C 21.757812 -40.660156 15.875 -43.65625 12 -47.84375 C 8.132812 -52.039062 6.203125 -57.488281 6.203125 -64.1875 C 6.203125 -69.15625 7.441406 -73.523438 9.921875 -77.296875 C 12.410156 -81.066406 16.03125 -83.992188 20.78125 -86.078125 C 25.53125 -88.171875 31.21875 -89.21875 37.84375 -89.21875 C 44.613281 -89.21875 50.414062 -88.320312 55.25 -86.53125 C 60.082031 -84.75 64.164062 -82.015625 67.5 -78.328125 L 58.890625 -66.53125 L 57.390625 -66.53125 C 54.898438 -69.132812 52.050781 -71.085938 48.84375 -72.390625 C 45.632812 -73.703125 41.96875 -74.359375 37.84375 -74.359375 C 33.070312 -74.359375 29.441406 -73.515625 26.953125 -71.828125 C 24.460938 -70.140625 23.21875 -67.8125 23.21875 -64.84375 C 23.21875 -62.082031 24.085938 -59.878906 25.828125 -58.234375 C 27.578125 -56.585938 30.597656 -55.300781 34.890625 -54.375 L 46.4375 -51.96875 C 54.976562 -50.164062 61.175781 -47.109375 65.03125 -42.796875 C 68.882812 -38.484375 70.8125 -32.859375 70.8125 -25.921875 C 70.8125 -20.429688 69.625 -15.648438 67.25 -11.578125 C 64.882812 -7.503906 61.316406 -4.34375 56.546875 -2.09375 C 51.773438 0.144531 45.921875 1.265625 38.984375 1.265625 Z M 38.984375 1.265625 "/></g></g></g><g clip-path="url(#cb77bca476)"><path fill="#ffd700" d="M 412.894531 249.308594 L 632.058594 249.308594 L 632.058594 385.308594 L 412.894531 385.308594 Z M 412.894531 249.308594 " fill-opacity="1" fill-rule="nonzero"/></g><g clip-path="url(#0e7f1dd7bb)"><path fill="#00227e" d="M 644.113281 249.308594 L 742.203125 249.308594 L 742.203125 385.308594 L 644.113281 385.308594 Z M 644.113281 249.308594 " fill-opacity="1" fill-rule="nonzero"/></g></svg>