<svg xmlns="http://www.w3.org/2000/svg" xmlns:xlink="http://www.w3.org/1999/xlink" width="1920" zoomAndPan="magnify" viewBox="0 0 1440 809.999993" height="1080" preserveAspectRatio="xMidYMid meet" version="1.0"><defs><clipPath id="34456c1d49"><path d="M 0 0 L 283.566406 0 L 283.566406 307.464844 L 0 307.464844 Z M 0 0 " clip-rule="nonzero"/></clipPath><clipPath id="f591b55c37"><path d="M 226.0625 209.484375 C 166.617188 251.914062 113.203125 281.746094 65.820312 298.972656 C 18.4375 316.203125 -23.457031 307.050781 -59.855469 271.515625 C -96.253906 235.976562 -112.621094 195.054688 -108.960938 148.75 C -105.300781 102.441406 -90.652344 45.042969 -65.023438 -23.445312 C -39.394531 -91.9375 13.699219 -118.429688 94.25 -102.921875 C 174.800781 -87.414062 231.769531 -42.078125 265.152344 33.089844 C 298.535156 108.257812 285.503906 167.054688 226.0625 209.484375 Z M 226.0625 209.484375 " clip-rule="nonzero"/></clipPath><clipPath id="2db6f9f69e"><path d="M 1149 521.589844 L 1440 521.589844 L 1440 810 L 1149 810 Z M 1149 521.589844 " clip-rule="nonzero"/></clipPath><clipPath id="35c6ba4434"><path d="M 1484.671875 838.359375 C 1425.226562 880.789062 1371.8125 910.617188 1324.429688 927.847656 C 1277.046875 945.078125 1235.15625 935.925781 1198.757812 900.386719 C 1162.359375 864.847656 1145.988281 823.925781 1149.652344 777.621094 C 1153.3125 731.316406 1167.957031 673.917969 1193.589844 605.425781 C 1219.21875 536.9375 1272.308594 510.445312 1352.859375 525.953125 C 1433.410156 541.460938 1490.378906 586.796875 1523.761719 661.964844 C 1557.148438 737.128906 1544.117188 795.929688 1484.671875 838.359375 Z M 1484.671875 838.359375 " clip-rule="nonzero"/></clipPath></defs><g clip-path="url(#34456c1d49)"><g clip-path="url(#f591b55c37)"><path fill="#00227e" d="M 226.0625 209.484375 C 166.617188 251.914062 113.203125 281.746094 65.820312 298.972656 C 18.4375 316.203125 -23.457031 307.050781 -59.855469 271.515625 C -96.253906 235.976562 -112.621094 195.054688 -108.960938 148.75 C -105.300781 102.441406 -90.652344 45.042969 -65.023438 -23.445312 C -39.394531 -91.9375 13.699219 -118.429688 94.25 -102.921875 C 174.800781 -87.414062 231.769531 -42.078125 265.152344 33.089844 C 298.535156 108.257812 285.503906 167.054688 226.0625 209.484375 Z M 226.0625 209.484375 " fill-opacity="1" fill-rule="nonzero"/></g></g><g clip-path="url(#2db6f9f69e)"><g clip-path="url(#35c6ba4434)"><path fill="#00227e" d="M 1484.671875 838.359375 C 1425.226562 880.789062 1371.8125 910.617188 1324.429688 927.847656 C 1277.046875 945.078125 1235.15625 935.925781 1198.757812 900.386719 C 1162.359375 864.847656 1145.988281 823.929688 1149.652344 777.621094 C 1153.3125 731.316406 1167.957031 673.917969 1193.589844 605.425781 C 1219.21875 536.9375 1272.308594 510.445312 1352.859375 525.953125 C 1433.410156 541.460938 1490.378906 586.796875 1523.761719 661.964844 C 1557.148438 737.128906 1544.117188 795.929688 1484.671875 838.359375 Z M 1484.671875 838.359375 " fill-opacity="1" fill-rule="nonzero"/></g></g></svg>