<?xml version="1.0" encoding="UTF-8" standalone="no"?>
<!DOCTYPE svg PUBLIC "-//W3C//DTD SVG 1.1//EN" "http://www.w3.org/Graphics/SVG/1.1/DTD/svg11.dtd">
<svg xmlns="http://www.w3.org/2000/svg" version="1.1" viewBox="0.00 0.00 675.00 1200.00">
<path fill="#182e64" d="
  M 445.75 0.00
  L 675.00 0.00
  L 675.00 274.10
  C 637.07 288.47 591.00 303.56 553.59 279.50
  Q 528.64 263.45 526.28 233.79
  C 525.66 225.90 525.80 218.40 526.53 209.76
  C 528.13 190.79 530.44 172.70 527.59 152.97
  C 524.25 129.94 511.88 114.72 495.68 99.07
  Q 487.22 90.92 461.01 67.25
  Q 456.26 62.96 449.68 54.36
  C 443.02 45.65 439.87 36.08 440.01 24.93
  Q 440.18 11.75 445.75 0.00
  Z"
/>
<path fill="#182e64" d="
  M 224.45 1200.00
  L 0.00 1200.00
  L 0.00 884.82
  Q 13.03 891.84 20.38 902.38
  Q 28.65 914.23 37.00 926.04
  Q 52.01 947.24 76.76 952.62
  Q 85.26 954.47 97.25 954.72
  Q 115.62 955.12 133.98 955.79
  Q 178.43 957.41 199.99 992.95
  C 215.80 1019.02 217.16 1053.81 214.50 1083.25
  C 212.15 1109.25 208.89 1135.30 212.18 1161.11
  Q 214.65 1180.49 224.34 1198.17
  Q 224.59 1198.63 225.04 1198.88
  Q 225.18 1198.96 225.33 1199.01
  Q 225.64 1199.11 225.46 1199.38
  Q 225.22 1199.75 224.45 1200.00
  Z"
/>
</svg>
